<svg xmlns="http://www.w3.org/2000/svg" width="90" height="90">
  <g fill="none" fill-rule="evenodd">
    <path fill="#07D1FF" d="M44.740488 17.75896537c-13.4680707.2508795-24.18148793 11.36362533-23.92883974 24.81883413.23854304 12.6987022-.9429319 42.5387851-1.76379652 56.243492 7.15103626 4.8598231 16.39167066 4.0234375 25.69263646 4.0234375 8.7104855 0 16.6807733.2848928 23.5515042-4.0234375.8179606-14.3005457 1.5421169-43.8447124 1.2919578-57.1576272-.2526482-13.4552088-11.3596268-24.17547196-24.8434622-23.90469893z"/>
    <path fill="#111" d="M34.5506529 34.1969863c0-1.5790656 1.5389236-2.898143 3.4777716-2.898143 1.938848 0 3.4777716 1.3190774 3.4777716 2.898143h1.1592572c0-2.2623748-2.0941963-4.0574002-4.6370288-4.0574002-2.5428325 0-4.6370288 1.7950254-4.6370288 4.0574002h1.1592572zM48.4617393 34.1969863c0-1.5790656 1.5389235-2.898143 3.4777715-2.898143 1.9388481 0 3.4777716 1.3190774 3.4777716 2.898143h1.1592572c0-2.2623748-2.0941963-4.0574002-4.6370288-4.0574002-2.5428324 0-4.6370287 1.7950254-4.6370287 4.0574002h1.1592572zM27.59510973 49.2673299c0 9.603601 7.78525687 17.3888579 17.38885797 17.3888579 9.603601 0 17.3888579-7.7852569 17.3888579-17.3888579h-1.1592572c0 8.9633609-7.2662398 16.2296007-16.2296007 16.2296007-8.963361 0-16.2296008-7.2662398-16.2296008-16.2296007h-1.15925717z"/>
    <path fill="#111" d="M28.7543669 48.6877013v-2.898143h-1.15925717v3.4777716h1.15925717zM62.3728256 48.6877013v-2.898143h-1.1592572v3.4777716h1.1592572z"/>
  </g>
</svg>
